<svg id="Capa_1" enable-background="new 0 0 512 512" height="512" viewBox="0 0 512 512" width="512" xmlns="http://www.w3.org/2000/svg"><g><g><g><g><g><g><g><g><g><circle cx="256" cy="256" fill="#606aea" r="256"/></g></g></g></g></g></g></g></g><path d="m511.84 265.123-192.137-192.138 6.507 131.924-124.486-124.486-93.963 307.307 123.046 123.046c8.288.809 16.692 1.224 25.193 1.224 138.331 0 251.036-109.718 255.84-246.877z" fill="#4855b7"/><g><path d="m416.963 248.668c0 53.716-43.545 97.261-97.261 97.261s-97.261-43.545-97.261-97.261 97.261-175.683 97.261-175.683 97.261 121.968 97.261 175.683z" fill="#64e1dc"/></g><g><path d="m319.703 72.985-.153 272.942c.051 0 .102.002.153.002 53.716 0 97.261-43.545 97.261-97.261-.001-53.715-97.261-175.683-97.261-175.683z" fill="#00c8c8"/></g><g><path d="m326.447 305.713c0 68.883-55.841 124.724-124.724 124.724s-124.723-55.841-124.723-124.724 124.724-225.29 124.724-225.29 124.723 156.407 124.723 225.29z" fill="#edfafa"/></g><g><path d="m201.724 80.423-.02 350.013h.02c68.883 0 124.724-55.841 124.724-124.724s-124.724-225.289-124.724-225.289z" fill="#cbf7f7"/></g></g></svg>